<svg xmlns="http://www.w3.org/2000/svg" viewBox="0 0 40 40" fill="none">
  <defs>
    <linearGradient id="logoGrad" x1="0%" y1="0%" x2="100%" y2="100%">
      <stop offset="0%" style="stop-color:#4F46E5"/>
      <stop offset="50%" style="stop-color:#6366F1"/>
      <stop offset="100%" style="stop-color:#7C3AED"/>
    </linearGradient>
    <linearGradient id="accentGrad" x1="0%" y1="0%" x2="100%" y2="100%">
      <stop offset="0%" style="stop-color:#818CF8"/>
      <stop offset="100%" style="stop-color:#A78BFA"/>
    </linearGradient>
  </defs>
  <!-- Main shield/calendar hybrid shape -->
  <rect x="4" y="6" width="32" height="30" rx="4" fill="url(#logoGrad)"/>
  <!-- Top bar -->
  <rect x="4" y="6" width="32" height="8" rx="4" fill="url(#logoGrad)"/>
  <rect x="4" y="10" width="32" height="4" fill="url(#logoGrad)"/>
  <!-- Calendar pins -->
  <rect x="12" y="3" width="3" height="8" rx="1.5" fill="white" opacity="0.9"/>
  <rect x="25" y="3" width="3" height="8" rx="1.5" fill="white" opacity="0.9"/>
  <!-- Grid cells representing timetable -->
  <rect x="8" y="17" width="7" height="5" rx="1" fill="white" opacity="0.95"/>
  <rect x="16.5" y="17" width="7" height="5" rx="1" fill="url(#accentGrad)" opacity="0.6"/>
  <rect x="25" y="17" width="7" height="5" rx="1" fill="white" opacity="0.95"/>
  <rect x="8" y="24" width="7" height="5" rx="1" fill="url(#accentGrad)" opacity="0.6"/>
  <rect x="16.5" y="24" width="7" height="5" rx="1" fill="white" opacity="0.95"/>
  <rect x="25" y="24" width="7" height="5" rx="1" fill="url(#accentGrad)" opacity="0.6"/>
  <!-- Sparkle/check accent -->
  <circle cx="34" cy="8" r="5" fill="#10B981"/>
  <path d="M31.5 8 L33 9.5 L36.5 6.5" stroke="white" stroke-width="1.5" stroke-linecap="round" stroke-linejoin="round" fill="none"/>
</svg>
